<?xml version="1.0" encoding="UTF-8" standalone="no"?><!DOCTYPE svg PUBLIC "-//W3C//DTD SVG 1.1//EN" "http://www.w3.org/Graphics/SVG/1.1/DTD/svg11.dtd"><svg width="100%" height="100%" viewBox="0 0 3000 2400" version="1.1" xmlns="http://www.w3.org/2000/svg" xmlns:xlink="http://www.w3.org/1999/xlink" xml:space="preserve" xmlns:serif="http://www.serif.com/" style="fill-rule:evenodd;clip-rule:evenodd;stroke-linejoin:round;stroke-miterlimit:2;"><path d="M216.012,2234.6l69.466,0l-51.995,148.082l-69.743,0l-17.47,-35.68l-17.424,35.68l-69.743,0l-52.319,-148.082l69.789,0l30.781,87.167l38.916,-79.31l38.962,79.31l30.781,-87.167Z" style="fill:#241813;fill-rule:nonzero;"/><path d="M496.463,2234.6l69.466,0l-52.041,148.082l-69.697,0l-17.47,-35.68l-17.424,35.68l-69.743,0l-52.273,-148.082l69.697,0l30.874,87.167l38.869,-79.31l38.916,79.31l30.827,-87.167Z" style="fill:#241813;fill-rule:nonzero;"/><path d="M776.913,2234.6l69.512,0l-52.088,148.082l-69.743,0l-17.424,-35.68l-17.424,35.68l-69.743,0l-52.319,-148.082l69.789,0l30.781,87.167l38.916,-79.31l38.916,79.31l30.827,-87.167Z" style="fill:#241813;fill-rule:nonzero;"/><path d="M869.858,2339.283c6.055,0 11.231,2.034 15.437,6.239c4.206,4.252 6.286,9.336 6.286,15.437c0,6.008 -2.08,11.185 -6.286,15.344c-4.206,4.206 -9.382,6.378 -15.437,6.378c-6.008,0 -11.185,-2.172 -15.344,-6.378c-4.252,-4.16 -6.378,-9.336 -6.378,-15.344c0,-6.101 2.126,-11.185 6.378,-15.437c4.16,-4.206 9.336,-6.239 15.344,-6.239" style="fill:#241813;fill-rule:nonzero;"/><path d="M1030.835,2234.6l69.743,0l0,148.082l-69.743,0l0,-60.915l-52.319,0l0,60.915l-69.697,0l0,-148.082l69.697,0l0,52.273l52.319,0l0,-52.273Z" style="fill:#241813;fill-rule:nonzero;"/><path d="M1345.718,2308.548c0,20.475 -11.092,37.899 -33.231,52.319c-22.185,14.466 -48.899,21.815 -80.234,21.815c-31.197,0 -57.865,-7.349 -80.003,-21.815c-22.185,-14.42 -33.231,-31.844 -33.231,-52.319l0,-73.949l69.697,0l0,73.949c0,8.504 4.298,15.76 12.802,21.63c8.504,6.101 18.764,9.105 30.735,9.105c12.109,0 22.462,-3.004 30.966,-9.105c8.504,-5.87 12.756,-13.126 12.756,-21.63l0,-73.949l69.743,0l0,73.949Z" style="fill:#241813;fill-rule:nonzero;"/><path d="M1363.327,2234.6l191.805,0l0,43.399l-61.1,0l0,104.684l-69.789,0l0,-104.684l-60.915,0l0,-43.399Z" style="fill:#241813;fill-rule:nonzero;"/><path d="M1759.276,2277.998l-122.015,0l0,17.517l61.146,0l0,26.252l-61.146,0l0,17.517l122.015,0l0,43.399l-191.758,0l0,-148.082l191.758,0l0,43.399Z" style="fill:#241813;fill-rule:nonzero;"/><path d="M1927.879,2234.6l69.697,0l0,148.082l-69.697,0c-18.071,-29.672 -47.142,-53.751 -87.26,-72.285l0,72.285l-69.697,0l0,-148.082c24.264,0.878 46.079,3.328 65.445,7.58c46.357,10.122 76.86,27.869 91.512,53.243l0,-60.823Z" style="fill:#241813;fill-rule:nonzero;"/><path d="M2239.388,2312.893l0,73.625l-39.932,-15.021c-20.891,10.029 -44.184,15.021 -69.974,15.021c-32.861,0 -60.869,-7.672 -84.117,-22.878c-23.248,-15.252 -34.895,-33.647 -34.895,-55.092c0,-21.445 11.647,-39.84 34.895,-55.092c23.248,-15.113 51.256,-22.693 84.163,-22.693c32.121,0 59.806,7.256 82.869,22l-46.264,36.651c-9.244,-8.643 -21.63,-12.941 -37.113,-12.941c-12.802,0 -23.71,3.097 -32.815,9.29c-9.151,6.332 -13.681,13.865 -13.681,22.785c0,8.874 4.529,16.361 13.681,22.739c9.059,6.286 20.012,9.428 32.769,9.428c15.529,0 27.869,-4.437 37.113,-13.126l0,-14.697l73.302,0Z" style="fill:#241813;fill-rule:nonzero;"/><path d="M2271.88,2339.283c6.055,0 11.231,2.034 15.437,6.239c4.206,4.252 6.332,9.336 6.332,15.437c0,6.008 -2.126,11.185 -6.332,15.344c-4.206,4.206 -9.382,6.378 -15.437,6.378c-6.008,0 -11.185,-2.172 -15.391,-6.378c-4.206,-4.16 -6.286,-9.336 -6.286,-15.344c0,-6.101 2.08,-11.185 6.286,-15.437c4.206,-4.206 9.382,-6.239 15.391,-6.239" style="fill:#241813;fill-rule:nonzero;"/><path d="M2424.306,2340.716c16.13,0 28.886,-4.622 38.13,-13.958l46.495,36.789c-23.063,15.298 -51.025,22.97 -83.886,22.97c-32.861,0 -60.869,-7.672 -84.117,-22.878c-23.248,-15.252 -34.895,-33.647 -34.895,-55.092c0,-21.445 11.647,-39.84 34.895,-55.092c23.248,-15.113 51.256,-22.693 84.117,-22.693c31.983,0 59.575,7.256 82.638,22l-46.218,36.651c-9.29,-8.643 -21.676,-12.941 -37.159,-12.941c-12.802,0 -23.756,3.097 -32.861,9.29c-9.105,6.332 -13.634,13.865 -13.634,22.785c0,8.874 4.529,16.361 13.634,22.739c9.105,6.286 20.059,9.428 32.861,9.428" style="fill:#241813;fill-rule:nonzero;"/><path d="M2631.825,2340.716c12.618,0 23.386,-3.143 32.306,-9.428c8.966,-6.378 13.403,-13.865 13.403,-22.739c0,-8.92 -4.437,-16.454 -13.403,-22.785c-8.92,-6.193 -19.689,-9.29 -32.306,-9.29c-12.618,0 -23.433,3.097 -32.399,9.29c-8.92,6.332 -13.403,13.865 -13.403,22.785c0,8.874 4.483,16.361 13.403,22.739c8.966,6.286 19.781,9.428 32.399,9.428m-118.78,-32.168c0,-21.445 11.601,-39.84 34.756,-55.092c23.155,-15.113 51.163,-22.693 84.024,-22.693c32.861,0 60.915,7.58 84.117,22.693c23.294,15.252 34.895,33.647 34.895,55.092c0,21.445 -11.601,39.84 -34.895,55.092c-23.201,15.206 -51.256,22.878 -84.117,22.878c-32.861,0 -60.869,-7.672 -84.024,-22.878c-23.155,-15.252 -34.756,-33.647 -34.756,-55.092" style="fill:#241813;fill-rule:nonzero;"/><path d="M2921.103,2234.6l69.697,0l0,148.082l-69.697,0l-0.092,-52.365l-43.722,52.365l-43.445,-52.365l0,52.365l-69.743,0l0,-148.082l69.789,0l43.168,52.273l44.046,-52.273Z" style="fill:#241813;fill-rule:nonzero;"/><path d="M17.044,22.423l26.529,99.6l0,2013.994l-26.529,-99.738l0,-2013.855Zm2931.097,0l26.575,99.6l0,2013.994l-26.575,-99.738l0,-2013.855Zm-123.402,0l94.932,0l0,2113.594l-94.932,0l0,-2113.594Zm-81.621,-0l13.311,220.876l0,1892.718l-13.311,-2113.594Zm-136.574,-0l81.575,0l0,2113.594l-81.575,0l0,-2113.594Zm-121.461,-0l81.621,0l0,2113.594l-81.621,0l0,-2113.594Zm-136.667,-0l26.575,99.6l0,2013.994l-26.575,-99.738l0,-2013.855Zm-54.999,0l13.265,220.876l0,1892.718l-13.265,-2113.594Zm-163.103,924.868c-35.542,56.247 -58.373,118.642 -68.356,187.137l0,197.859c8.781,-2.034 17.609,-9.151 26.483,-21.399c31.567,-58.235 54.399,-128.301 68.403,-210.153l41.689,-87.491l-68.218,-65.953Zm-244.817,-473.919l53.058,22.97c-20.336,0 -37.991,-7.58 -53.058,-22.97m-449.839,858.915c24.033,23.571 42.428,52.688 55.138,87.444c-20.336,-23.479 -38.592,-52.596 -55.138,-87.444m-366.139,210.477l66.369,42.567c31.567,4.252 58.789,14.928 81.621,32.306c23.941,25.559 55.6,47.974 94.793,67.432l163.334,-12.155c39.193,-10.353 80.327,-24.588 123.31,-42.983l-94.885,-23.063l-41.735,10.769l-121.461,-10.769l313.08,-32.214l53.058,-10.769c-12.664,21.445 -30.319,39.563 -53.058,53.751l-81.667,88.877l-81.482,21.584l-28.47,-32.306l-150.024,10.723c-39.193,-0.878 -79.726,-8.088 -121.461,-21.445c-16.5,-30.55 -39.147,-60.222 -68.218,-88.97c-37.991,-19.319 -27.777,-21.584 -53.104,-53.336m-41.827,-672.148l-41.689,21.538l13.265,-21.538m-94.932,21.538l13.311,-76.722l-13.311,-23.017c-17.701,-38.823 -26.529,-82.823 -26.529,-131.906l13.265,44.462m299.77,-450.949c-35.357,13.357 -76.445,24.033 -123.217,32.214l-108.15,55.23l-81.667,65.907l-68.264,242.321c-6.424,-25.512 -15.853,-43.861 -28.563,-55.138l-13.265,142.582c1.202,20.475 10.769,38.962 28.47,55.277l0,-55.277l53.151,110.461l41.735,263.858c30.365,-22.416 66.323,-40.395 108.196,-53.751c49.222,6.239 99.184,16.916 149.885,32.306l123.356,55.184l26.575,121.184l-13.311,131.814l-26.529,76.768l26.529,22.97l94.885,10.769l41.735,-23.017c41.735,-13.265 82.268,-31.567 121.461,-55.138l13.265,44.415l-13.265,10.723l-176.414,44.554l-123.356,-10.769l-53.243,-110.415c31.567,-18.395 58.835,-43.953 81.667,-76.768l-28.424,-121.137c-14.05,-20.475 -36.142,-35.218 -66.508,-44.554c-29.164,15.391 -65.722,23.017 -109.953,23.017c-7.672,-15.298 -21.029,-26.529 -39.932,-33.693l-15.159,55.23l28.424,33.739l-28.424,0l0,10.723l-39.84,-44.462c16.361,-24.496 39.1,-46.495 68.264,-65.953l53.243,-33.739l-53.243,-10.723c-43.029,8.181 -79.587,26.575 -109.953,55.184c-22.832,21.538 -40.533,47.142 -53.197,76.676l53.197,110.507l13.265,131.86l41.735,110.368l68.264,99.738l81.621,76.722l108.196,65.861l68.218,87.491c31.521,3.097 63.873,10.861 96.827,23.063l147.99,-33.832l178.448,-121.137c23.941,-28.609 55.646,-54.167 94.839,-76.722c31.567,-19.273 58.743,-44.97 81.621,-76.583l54.953,-110.461l13.311,-121.276l0,-153.305l26.668,-121.137l-53.243,-231.598c15.206,-31.752 42.474,-57.218 81.667,-76.722l39.794,-55.323l0,-144.154l-39.794,-108.89c-29.21,-16.315 -56.293,-38.361 -81.667,-65.953c-12.618,-27.546 -35.495,-49.499 -68.218,-65.907l-41.873,-55.277l-218.103,-65.907l-108.242,10.723l-26.483,-10.723l-165.091,10.723l-134.864,-10.723Zm-544.586,-231.598l13.311,593.531l39.886,-87.444c17.655,-63.365 27.13,-136.343 28.424,-219.304l0,-253.043l13.265,306.749c0,22.554 4.437,37.298 13.311,44.462c26.529,-63.411 40.487,-132.877 41.735,-208.628l0,-176.322l81.621,10.769l0,242.321c24.033,-52.18 37.344,-110.969 39.84,-176.46l13.357,89.016l0,65.953c30.365,-29.672 53.058,-66.461 68.264,-110.415l13.265,-121.184l0,176.322c51.857,-19.319 78.987,-56.109 81.667,-110.415l0,-65.907l96.642,0l0,110.415l68.403,-88.97l0,121.184l53.058,0l0,-142.629l81.667,0l0,110.415l110.091,32.214l0,-108.89l53.058,87.444c0,-38.869 9.475,-79.264 28.47,-121.184l0,110.415l55.092,-110.415l66.323,0l0,176.322l15.159,0c32.907,-52.041 50.609,-110.784 53.197,-176.322c2.542,63.411 16.361,132.969 41.781,208.582c2.45,-62.394 15.714,-128.301 39.932,-197.813l0,186.998l15.159,44.554l94.747,44.462l0,-286.782l81.667,10.769l0,242.321c2.542,47.05 15.76,94.562 39.794,142.582l0,-395.672l81.667,0l15.159,814.453c7.58,48.067 20.798,92.066 39.794,131.86l0,-891.129c0,-15.252 4.437,-26.575 13.265,-33.739l0,1947.995l-13.265,144.154l-13.265,-980.098c-21.491,62.394 -35.495,131.999 -41.689,208.628l0,737.777c-24.126,16.407 -51.302,27.592 -81.667,33.693l-13.265,-771.47l-26.529,748.5c-8.828,10.214 -22.832,17.979 -41.689,22.97c-26.668,-64.382 -39.979,-134.402 -39.979,-210.107l0,-240.842c-41.827,38.823 -78.339,82.823 -109.906,131.906l0,242.413l-26.668,-78.247l0,-164.166l-41.735,32.306l0,242.228l-13.311,-242.228c-29.164,25.559 -51.857,55.23 -68.356,88.923l0,197.813l-66.323,0c-7.672,-52.088 -25.974,-100.108 -55.092,-144.154c0,45.016 -9.567,93.175 -28.47,144.154l0,-88.923l-26.575,78.247l-26.483,-144.2l-68.403,10.723c-11.462,69.604 -52.596,114.112 -123.356,133.477l0,-154.876l-39.794,-21.538l-13.265,10.723l0,142.675l-15.159,33.693l0,-197.813l-39.84,-33.832l-13.403,21.538l0,210.107l-54.953,0c-26.529,-64.382 -40.533,-134.402 -41.689,-210.107l-13.311,-142.675l-68.356,-32.121l-13.265,384.903l0,-342.059l-26.575,-131.906l-28.424,-21.399l-13.265,21.399l0,473.965l-13.357,-10.676l0,-484.688l-39.84,-99.738l0,584.426l-81.621,10.676l0,-914.145l-15.206,-121.137l15.206,-43.029l-28.47,-33.693l-26.575,165.599l0,891.221c0,15.391 -4.391,26.113 -13.265,32.214l0,-1155.033l-15.113,-44.462c-15.344,-38.869 -28.609,-82.776 -39.84,-131.906l-13.357,65.953l0,1211.789l-13.311,-88.923l0,-1948.041Zm-68.218,0l26.483,99.6l0,2013.994l-26.483,-99.738l0,-2013.855Zm-123.356,0l13.218,220.876l0,1892.718l-13.218,-2113.594Zm-136.667,-0l96.827,0l0,2113.594l-96.827,0l0,-2113.594Zm-121.415,-0l94.885,0l0,2113.594l-94.885,0l0,-2113.594Zm-68.403,-0l13.403,220.876l0,1903.441l-13.403,-2124.316Z" style="fill:#241813;fill-rule:nonzero;"/><path d="M1737.554,994.895c60.777,11.323 101.864,44.554 123.402,99.692l-41.827,-33.693l-54.999,-10.815l-134.725,21.584l-41.735,10.723l191.62,33.693l-15.159,55.277c-30.365,-14.328 -66.508,-22.092 -108.242,-23.155c-36.651,17.424 -63.781,-0.416 -81.482,-53.613l-68.403,32.26c-22.785,38.777 -36.05,82.776 -39.794,131.814c-12.664,-10.076 -22.185,-24.449 -28.424,-42.844l-13.357,-44.462l26.668,-121.276l54.907,0" style="fill:#241813;fill-rule:nonzero;"/><path d="M802.379,626.261l136.574,-89.016c36.743,-36.651 72.793,-80.604 108.196,-131.86" style="fill:#241813;fill-rule:nonzero;"/><path d="M1189.686,517.14c-24.126,31.659 -55.693,64.89 -94.885,99.692c-51.857,28.609 -88.6,68.957 -110.091,121.184l-26.529,-10.723c-20.336,33.785 -34.201,70.02 -41.735,108.843l-39.886,88.97" style="fill:#241813;fill-rule:nonzero;"/><path d="M910.483,903.661l-13.218,-55.23l41.689,55.23" style="fill:#241813;fill-rule:nonzero;"/><path d="M1096.464,925.106l-109.999,-76.676l41.735,-33.739c34.109,33.878 56.802,70.667 68.264,110.415" style="fill:#241813;fill-rule:nonzero;"/><path d="M1231.19,535.073l123.356,65.907l68.356,99.692c-29.164,-4.067 -56.293,-15.206 -81.621,-33.693l-68.218,21.445l-13.311,-21.445l-55.092,88.97l-68.218,-33.832c25.189,-22.416 52.319,-40.81 81.482,-55.138l13.265,-131.906" style="fill:#241813;fill-rule:nonzero;"/><path d="M1895.48,759.461l-53.058,-21.445l13.265,121.137c-26.668,-6.055 -53.89,-17.286 -81.621,-33.693l-94.932,22.97c-48.02,13.311 -103.158,24.126 -165.044,32.168l-53.104,-44.462l-68.356,-119.566l94.932,21.445l81.621,65.953l136.62,-10.769l68.264,-23.017c-29.164,-28.609 -65.907,-54.121 -110.091,-76.629c63.226,-19.458 118.318,-48.621 165.183,-87.444l66.323,153.351" style="fill:#241813;fill-rule:nonzero;"/><path d="M1441.851,803.969c31.567,23.571 72.655,38.361 123.356,44.462c-36.697,-16.315 -77.831,-31.105 -123.356,-44.462" style="fill:#241813;fill-rule:nonzero;"/><path d="M1551.942,529.388c35.357,14.281 66.924,36.374 94.932,65.999l-81.667,-23.109l13.265,44.554l-110.091,-21.445c26.529,-16.315 54.399,-38.407 83.562,-65.999" style="fill:#241813;fill-rule:nonzero;"/></svg>