<?xml version="1.0" encoding="UTF-8" standalone="no"?><!DOCTYPE svg PUBLIC "-//W3C//DTD SVG 1.1//EN" "http://www.w3.org/Graphics/SVG/1.1/DTD/svg11.dtd"><svg width="100%" height="100%" viewBox="0 0 1000 1000" version="1.1" xmlns="http://www.w3.org/2000/svg" xmlns:xlink="http://www.w3.org/1999/xlink" xml:space="preserve" xmlns:serif="http://www.serif.com/" style="fill-rule:evenodd;clip-rule:evenodd;stroke-linejoin:round;stroke-miterlimit:2;"><path d="M478.404,24.805l-455.527,455.519c-13.976,13.984 -14.586,36.028 -1.363,49.251l62.254,62.254c13.232,13.223 35.267,12.613 49.26,-1.363l159.421,-159.43l86.194,86.194c13.231,13.231 35.275,12.621 49.26,-1.363l86.036,-86.036c13.976,-13.984 14.586,-36.028 1.363,-49.26l-86.194,-86.185l159.43,-159.43c13.967,-13.984 14.577,-36.028 1.363,-49.26l-62.263,-62.254c-6.611,-6.611 -15.424,-9.769 -24.339,-9.522c-8.906,0.246 -17.916,3.897 -24.895,10.885Z" style="fill:url(#_Linear1);fill-rule:nonzero;"/><path d="M867.386,415.943l-159.43,159.438l-86.193,-86.202c-13.223,-13.223 -35.276,-12.613 -49.251,1.363l-86.045,86.036c-13.976,13.984 -14.586,36.028 -1.363,49.26l86.194,86.194l-159.421,159.43c-13.984,13.976 -14.594,36.029 -1.363,49.251l62.254,62.254c13.214,13.214 35.267,12.604 49.234,-1.362l455.519,-455.519c13.984,-13.976 14.594,-36.02 1.363,-49.251l-62.245,-62.254c-6.611,-6.611 -15.433,-9.76 -24.348,-9.513c-8.906,0.246 -17.916,3.889 -24.903,10.876Z" style="fill:url(#_Linear2);fill-rule:nonzero;"/><defs><linearGradient id="_Linear1" x1="0" y1="0" x2="1" y2="0" gradientUnits="userSpaceOnUse" gradientTransform="matrix(220.280132,220.280132,506.128802,-506.128802,250.637673,252.566402)"><stop offset="0" style="stop-color:#ff8e00;stop-opacity:1"/><stop offset="1" style="stop-color:#ff7702;stop-opacity:1"/></linearGradient><linearGradient id="_Linear2" x1="0" y1="0" x2="1" y2="0" gradientUnits="userSpaceOnUse" gradientTransform="matrix(220.280132,220.280132,506.128802,-506.128802,529.486442,533.56222)"><stop offset="0" style="stop-color:#ff8e00;stop-opacity:1"/><stop offset="1" style="stop-color:#ff7702;stop-opacity:1"/></linearGradient></defs></svg>