<?xml version="1.0" encoding="UTF-8" standalone="no"?><!DOCTYPE svg PUBLIC "-//W3C//DTD SVG 1.1//EN" "http://www.w3.org/Graphics/SVG/1.1/DTD/svg11.dtd"><svg width="100%" height="100%" viewBox="0 0 240 240" version="1.1" xmlns="http://www.w3.org/2000/svg" xmlns:xlink="http://www.w3.org/1999/xlink" xml:space="preserve" xmlns:serif="http://www.serif.com/" style="fill-rule:evenodd;clip-rule:evenodd;stroke-linejoin:round;stroke-miterlimit:2;"><path d="M32.329,141.56c-3.344,3.309 -8.766,3.309 -12.11,0l-15.743,-15.581c-3.344,-3.309 -3.344,-8.676 0,-11.985l108.989,-107.866c3.344,-3.307 8.766,-3.307 12.108,0l15.745,15.583c3.342,3.307 3.342,8.674 0,11.983l-38.148,37.753l21.799,21.574c3.342,3.307 3.342,8.676 0,11.983l-20.587,20.375c-3.344,3.309 -8.766,3.309 -12.11,0l-21.797,-21.572l-38.146,37.753Z" style="fill:#fff;"/><path d="M114.07,146.954c-3.344,-3.309 -3.344,-8.678 0,-11.985l20.587,-20.375c3.344,-3.309 8.764,-3.309 12.11,0l21.797,21.572l38.146,-37.753c3.344,-3.309 8.766,-3.309 12.11,0l15.743,15.581c3.344,3.309 3.344,8.676 0,11.985l-108.989,107.866c-3.344,3.309 -8.766,3.309 -12.11,0l-15.743,-15.581c-3.344,-3.309 -3.344,-8.676 0,-11.985l38.146,-37.753l-21.797,-21.572Z" style="fill:#fff;"/></svg>